<?xml version="1.0" encoding="UTF-8"?>
<svg id="hot-coffee" xmlns="http://www.w3.org/2000/svg" version="1.1" viewBox="0 0 32 32">
  <!-- Generator: Adobe Illustrator 29.3.1, SVG Export Plug-In . SVG Version: 2.1.0 Build 151)  -->
  <defs>
    <style>
      .st0 {
        fill: #bc9471;
      }

      .st1 {
        fill: #4d4d4d;
      }

      .st2 {
        fill: #e0ba94;
      }

      .st3 {
        fill: none;
        stroke: #4d4d4d;
        stroke-linecap: round;
        stroke-linejoin: round;
      }
    </style>
  </defs>
  <path class="st0" d="M6.9,18.8c-.7,0-1.3.5-1.3,1.2,0,0,0,.2,0,.3,1,4.3,4.8,7.3,9.1,7.3h1.3c4.4,0,8.2-3,9.1-7.3.1-.7-.3-1.3-1-1.5,0,0-.2,0-.3,0H6.9Z"/>
  <path class="st1" d="M25.5,12.5v4.4c0,4.5-3.6,8.1-8.1,8.1h-1.3c-4.5,0-8.1-3.6-8.1-8.1v-4.4h17.6M26.7,11.3H6.6v5.7c0,5.2,4.2,9.4,9.4,9.4,0,0,0,0,0,0h1.3c5.2,0,9.4-4.2,9.4-9.4,0,0,0,0,0,0v-5.7Z"/>
  <path class="st2" d="M9.8,29.5c-2.1,0-3.8-1.7-3.8-3.8h21.3c0,2.1-1.7,3.8-3.8,3.8h-13.8Z"/>
  <path class="st1" d="M26.6,26.4c-.3,1.5-1.6,2.5-3.1,2.5h-13.7c-1.5,0-2.8-1-3.1-2.5h19.9M28,25.1H5.4v.6c0,2.4,2,4.4,4.4,4.4h13.7c2.4,0,4.4-2,4.4-4.4h0v-.6ZM6.6,13.8v5h-1c-.8,0-1.5-.7-1.5-1.5v-2c0-.8.7-1.5,1.5-1.5h1M7.9,12.5h-2.2c-1.5,0-2.8,1.2-2.8,2.8v2c0,1.5,1.2,2.8,2.8,2.8h2.2v-7.5Z"/>
  <line class="st3" x1="17" y1="9.4" x2="17" y2="1.9"/>
  <line class="st3" x1="22.9" y1="9.4" x2="22.9" y2="4.4"/>
  <line class="st3" x1="11" y1="9.4" x2="11" y2="4.4"/>
  <line class="st3" x1="9.8" y1="18.2" x2="23.6" y2="18.2"/>
</svg>